<?xml version="1.0" standalone="no"?>
<!DOCTYPE svg PUBLIC "-//W3C//DTD SVG 20010904//EN"
 "http://www.w3.org/TR/2001/REC-SVG-20010904/DTD/svg10.dtd">
<svg version="1.0" xmlns="http://www.w3.org/2000/svg"
 width="729.000000pt" height="781.000000pt" viewBox="0 0 729.000000 781.000000"
 preserveAspectRatio="xMidYMid meet">

<g transform="translate(0.000000,781.000000) scale(0.100000,-0.100000)"
fill="#000000" stroke="none">
<path d="M3415 7719 c-737 -50 -1431 -335 -2020 -831 -124 -105 -383 -371
-487 -501 -677 -849 -974 -1940 -827 -3039 134 -1008 637 -1910 1409 -2527
504 -403 1109 -658 1755 -738 192 -24 616 -24 800 0 661 88 1244 334 1753 742
808 647 1309 1588 1424 2675 19 185 16 647 -6 835 -133 1140 -695 2117 -1582
2751 -644 460 -1437 686 -2219 633z m619 -45 c240 -27 453 -76 683 -155 82
-28 156 -53 165 -56 10 -3 15 -10 11 -16 -3 -5 -1 -7 4 -4 16 10 249 -91 290
-125 7 -6 13 -8 13 -5 0 3 28 -10 63 -30 34 -19 82 -47 107 -61 205 -115 518
-357 703 -545 162 -164 321 -352 311 -368 -4 -7 -3 -9 4 -5 12 7 73 -71 176
-228 444 -675 666 -1468 643 -2296 -9 -320 -45 -579 -118 -873 -40 -157 -134
-446 -170 -521 -10 -22 -19 -44 -19 -50 0 -5 -45 -101 -100 -213 -65 -131
-105 -201 -112 -197 -6 4 -8 3 -4 -4 7 -12 -39 -91 -147 -252 -168 -251 -367
-478 -601 -687 -119 -106 -141 -121 -155 -111 -14 11 -14 11 -3 -4 11 -14 10
-18 -9 -29 -13 -6 -34 -23 -48 -36 -14 -13 -55 -44 -91 -68 -36 -24 -80 -55
-99 -69 -19 -14 -39 -23 -45 -19 -6 3 -8 3 -4 -2 11 -12 -254 -169 -266 -158
-3 4 -6 2 -6 -4 0 -24 -367 -181 -565 -241 -360 -110 -604 -146 -1000 -146
-348 -1 -521 20 -841 98 -120 30 -359 109 -428 142 -28 13 -53 24 -58 24 -13
0 -248 115 -341 167 -48 27 -84 53 -80 58 5 4 3 5 -4 2 -16 -10 -355 221 -435
295 -7 7 -52 47 -98 88 -113 99 -298 288 -364 371 -11 13 -34 41 -53 62 -18
21 -31 43 -27 49 4 7 3 8 -4 4 -6 -4 -19 6 -29 21 -10 15 -38 55 -63 88 -58
77 -110 154 -113 168 -1 7 -7 16 -14 22 -21 18 -113 177 -193 336 -119 235
-209 466 -279 714 -31 111 -82 338 -79 352 0 5 -2 15 -5 23 -8 21 -34 203 -49
340 -18 173 -15 613 6 800 28 249 93 570 148 730 10 30 21 65 23 77 31 141
277 692 321 716 8 5 12 12 9 17 -6 9 51 110 69 122 6 4 7 8 3 8 -7 0 100 162
172 260 96 131 268 326 407 460 115 111 318 286 325 279 2 -1 18 10 34 25 52
48 425 286 449 286 3 0 27 13 53 28 52 31 267 124 378 165 304 112 623 177
985 201 103 7 435 -5 564 -20z"/>
<path d="M3340 7569 c-317 -31 -644 -112 -933 -230 -116 -48 -317 -145 -387
-187 -19 -12 -48 -29 -65 -38 -81 -45 -287 -189 -391 -274 -17 -14 -51 -41
-75 -60 -74 -58 -276 -259 -367 -365 -48 -55 -89 -102 -92 -105 -15 -14 -222
-299 -245 -338 -45 -74 -65 -110 -125 -218 -232 -418 -373 -859 -445 -1389
-39 -294 -31 -765 21 -1085 167 -1044 738 -1956 1575 -2515 62 -41 117 -75
121 -75 5 0 6 -6 2 -12 -4 -7 -4 -10 1 -6 8 7 134 -58 146 -75 3 -5 9 -8 13
-8 10 2 70 -31 78 -43 4 -6 8 -8 8 -3 0 4 22 -4 50 -18 80 -41 307 -130 430
-169 63 -20 122 -40 130 -43 8 -3 19 -5 23 -4 4 1 34 -5 65 -13 338 -87 793
-113 1157 -67 378 49 718 150 1044 311 177 87 417 230 475 282 10 10 23 15 28
12 4 -3 8 -1 8 4 0 5 21 26 48 45 261 200 494 431 667 662 33 44 62 82 66 85
12 10 128 188 193 297 77 129 207 394 261 533 346 884 360 1870 39 2760 -64
175 -76 205 -164 385 -238 486 -578 915 -972 1227 -175 138 -237 183 -326 234
-29 16 -50 33 -47 37 3 4 2 5 -1 3 -3 -2 -36 13 -72 35 -85 49 -282 146 -392
192 -259 108 -502 173 -830 223 -126 19 -579 27 -720 13z m637 -34 c1572 -165
2841 -1469 3057 -3140 51 -389 38 -843 -35 -1223 -154 -809 -542 -1513 -1134
-2059 -487 -450 -1095 -744 -1739 -842 -556 -85 -1139 -20 -1661 186 -640 252
-1195 701 -1593 1287 -370 545 -584 1154 -642 1829 -13 156 -13 490 0 647 109
1269 817 2374 1890 2953 344 185 778 319 1170 361 175 19 509 19 687 1z"/>
<path d="M3435 7254 c-429 -34 -790 -134 -1158 -322 -492 -250 -900 -621
-1226 -1112 -314 -474 -505 -1036 -562 -1653 -15 -163 -6 -600 15 -752 64
-451 176 -814 369 -1189 767 -1492 2441 -2135 3917 -1504 754 322 1378 970
1709 1776 306 744 351 1605 125 2384 -105 363 -296 758 -506 1051 -211 293
-485 567 -773 773 -499 357 -1137 560 -1740 552 -71 -1 -148 -3 -170 -4z m625
-52 c653 -107 1222 -402 1692 -879 531 -537 854 -1209 963 -2003 22 -157 30
-559 16 -735 -99 -1193 -757 -2223 -1756 -2746 -567 -297 -1229 -400 -1860
-289 -544 96 -1062 352 -1490 737 -933 840 -1328 2176 -1019 3441 153 628 462
1175 914 1622 476 471 1043 758 1690 854 159 24 166 24 455 21 213 -2 296 -7
395 -23z"/>
<path d="M3328 7170 c-540 -61 -1026 -256 -1472 -590 -641 -480 -1096 -1240
-1250 -2090 -69 -385 -68 -873 5 -1265 158 -854 616 -1603 1284 -2095 418
-308 891 -495 1405 -555 232 -28 560 -19 800 21 1256 208 2271 1254 2529 2606
53 277 75 669 52 943 -78 939 -494 1768 -1177 2343 -356 300 -785 516 -1235
622 -205 48 -334 62 -604 65 -143 2 -295 0 -337 -5z m577 -26 c1389 -138 2522
-1296 2729 -2789 71 -514 23 -1075 -136 -1565 -174 -538 -504 -1062 -891
-1414 -459 -418 -967 -666 -1562 -763 -143 -24 -187 -27 -420 -27 -218 0 -283
4 -400 22 -529 82 -962 270 -1405 611 -116 89 -410 383 -510 511 -356 454
-589 986 -684 1560 -34 207 -46 356 -46 586 0 935 358 1801 1006 2435 634 619
1466 918 2319 833z"/>
<path d="M3600 6725 c14 -17 9 -51 -15 -109 -12 -29 -19 -36 -28 -27 -20 20
-31 12 -12 -9 10 -11 13 -20 7 -20 -6 0 -14 5 -17 10 -10 16 -21 12 -33 -14
-9 -20 -7 -25 13 -34 21 -10 23 -15 15 -42 -15 -53 -66 -134 -93 -149 -23 -14
-28 -13 -66 12 -56 37 -52 26 5 -13 25 -18 44 -36 42 -42 -2 -5 -57 -30 -123
-55 -187 -69 -226 -85 -222 -90 3 -2 83 26 178 63 133 52 188 68 232 70 79 3
86 14 8 14 -34 0 -60 4 -57 9 9 14 140 0 149 -15 4 -8 12 -14 18 -14 5 0 -2
20 -16 45 -27 46 -28 81 -3 129 9 16 12 14 35 -19 l26 -38 33 39 c18 21 33 35
34 30 0 -4 -11 -21 -25 -38 -35 -42 -31 -55 4 -16 l30 33 15 -37 c21 -50 20
-64 -6 -82 -21 -15 -17 -16 64 -16 122 0 144 -14 33 -21 l-90 -5 100 -2 100
-1 -33 30 c-18 16 -37 27 -41 24 -14 -8 -30 19 -56 95 -31 90 -31 90 0 90 14
0 25 4 25 10 0 22 -25 60 -38 58 -9 -2 -22 16 -35 51 -17 44 -18 57 -8 73 17
27 8 33 -13 9 -16 -17 -15 -22 8 -85 14 -36 22 -66 18 -66 -4 0 -18 31 -31 70
-23 68 -24 71 -6 90 18 20 17 20 -60 20 -68 0 -76 -2 -65 -15z m24 -137 l-24
-61 25 -25 c14 -14 25 -32 25 -40 0 -18 -59 57 -60 75 0 22 43 123 51 118 4
-3 -3 -33 -17 -67z m58 -101 c-15 -17 -17 -16 -38 10 -28 34 -29 40 -8 89 l17
39 22 -60 c21 -55 22 -61 7 -78z m-102 -10 c0 -2 -7 -25 -16 -51 -9 -26 -14
-58 -11 -72 2 -14 1 -22 -3 -17 -5 4 -10 17 -11 28 -4 26 21 115 32 115 5 0 9
-1 9 -3z"/>
<path d="M3075 6639 c-71 -27 -141 -54 -155 -60 l-25 -12 27 -9 c21 -7 32 -24
52 -76 25 -65 26 -67 8 -82 -20 -15 -36 -50 -25 -50 4 0 15 8 25 17 23 21 26
17 65 -80 25 -65 26 -70 11 -95 -11 -17 -29 -29 -50 -33 l-33 -6 33 -2 32 -1
-20 -40 c-25 -49 -41 -90 -35 -90 5 0 66 128 65 136 -1 4 63 31 142 61 79 29
156 59 172 66 l29 13 -37 22 c-20 12 -39 28 -42 37 -10 25 -24 17 -24 -13 0
-17 -9 -37 -22 -49 -32 -29 -89 -56 -98 -46 -8 9 -50 126 -50 140 0 13 65 34
84 27 20 -8 20 -8 -8 61 l-23 58 -12 -35 c-10 -32 -31 -47 -63 -48 -4 0 -16
25 -28 57 -17 45 -18 58 -8 65 28 17 79 26 113 18 32 -7 35 -6 35 15 0 12 3
37 6 54 4 17 3 31 -2 30 -5 0 -67 -23 -139 -50z m91 -31 c4 -7 3 -8 -5 -4 -17
11 -121 -22 -121 -38 0 -8 9 -35 20 -61 22 -51 24 -65 12 -65 -7 0 -57 128
-55 140 2 9 88 39 115 39 15 1 30 -4 34 -11z m4 -177 c0 -5 -13 -12 -30 -16
-16 -4 -32 -10 -35 -14 -2 -5 9 -43 25 -85 33 -86 33 -86 21 -86 -9 0 -76 169
-70 175 6 5 73 33 82 34 4 1 7 -3 7 -8z"/>
<path d="M3236 6658 c-3 -13 -5 -32 -5 -43 1 -11 5 -2 10 19 10 42 6 62 -5 24z"/>
<path d="M4147 6636 c-113 -41 -187 -181 -163 -310 18 -97 162 -170 236 -119
26 18 51 47 61 73 14 33 -4 27 -45 -15 -36 -38 -49 -45 -80 -45 -30 0 -45 7
-72 34 -30 30 -34 40 -34 85 0 60 37 167 75 217 70 92 167 69 183 -42 l7 -48
43 38 c45 41 52 56 26 56 -9 0 -34 14 -56 31 -39 31 -98 58 -128 58 -8 0 -32
-6 -53 -13z"/>
<path d="M4157 6563 c-42 -45 -79 -138 -85 -212 -4 -57 -1 -69 17 -91 l22 -25
-17 28 c-35 58 6 219 73 290 31 32 76 36 107 10 21 -18 21 -18 2 5 -28 33 -84
30 -119 -5z"/>
<path d="M3833 6560 c3 -8 7 -25 11 -37 7 -21 4 -23 -24 -23 -27 0 -31 -3 -25
-17 4 -10 16 -43 26 -73 29 -83 29 -83 35 -78 2 3 -7 36 -21 73 -14 37 -25 71
-25 76 0 4 13 9 30 11 l29 3 -20 40 c-10 22 -18 33 -16 25z"/>
<path d="M3190 6537 c0 -13 43 -123 52 -132 5 -5 -2 21 -17 59 -24 65 -35 88
-35 73z"/>
<path d="M4362 6484 l-47 -46 41 30 c43 33 71 62 60 62 -4 0 -28 -21 -54 -46z"/>
<path d="M4518 6445 l-15 -54 26 14 c22 11 32 11 56 1 27 -12 66 -46 52 -46
-3 0 -21 9 -39 19 -34 20 -68 16 -83 -9 -6 -9 -2 -9 13 -1 30 16 57 13 76 -8
16 -18 12 -24 -85 -142 -57 -68 -104 -126 -106 -128 -1 -2 -17 -4 -34 -3 l-32
1 29 -30 c15 -16 43 -39 61 -51 18 -13 33 -29 33 -36 0 -8 -17 0 -41 20 -23
18 -53 41 -68 51 -32 23 53 -56 92 -84 l27 -20 0 40 c0 36 10 52 96 158 134
164 121 153 150 119 14 -16 24 -37 21 -47 -4 -17 -3 -17 37 0 22 10 47 20 55
22 10 4 -116 115 -285 251 -21 17 -21 16 -36 -37z m226 -167 c9 -12 16 -29 16
-37 0 -8 -10 1 -22 19 -13 19 -28 35 -34 37 -6 2 -64 -61 -129 -139 -65 -79
-116 -135 -112 -125 4 10 57 78 119 151 120 143 126 146 162 94z"/>
<path d="M2777 6393 c43 -35 48 -86 17 -167 -5 -13 7 -20 71 -41 11 -3 3 3
-18 15 -32 18 -38 25 -33 43 23 79 10 134 -37 157 l-22 11 22 -18z"/>
<path d="M2619 6380 c-69 -37 -182 -187 -130 -173 12 3 32 -13 62 -49 59 -70
63 -76 49 -93 -7 -8 -9 -22 -6 -31 5 -14 9 -13 27 7 l20 24 -6 -30 c-4 -23 -3
-26 5 -15 8 13 17 8 49 -26 31 -32 38 -47 34 -67 -7 -37 4 -34 62 18 47 41 48
44 24 45 -19 0 -38 15 -72 58 -26 31 -47 60 -47 64 0 14 49 63 56 55 4 -4 -3
-18 -15 -31 -26 -27 -27 -24 34 -99 21 -26 37 -37 55 -36 23 2 23 2 3 6 -12 2
-40 25 -62 51 l-39 47 22 28 22 27 60 -38 c32 -22 77 -53 98 -71 l39 -31 21
52 22 53 -31 8 c-96 26 -144 41 -176 58 l-37 18 20 41 c54 108 -49 190 -163
130z m89 -50 c35 -33 38 -68 11 -119 -13 -25 -29 -46 -35 -46 -6 0 -32 25 -57
55 l-46 55 23 24 c13 12 39 27 57 31 30 7 31 8 8 9 -27 1 -90 -35 -96 -55 -2
-6 19 -39 48 -73 28 -34 49 -65 45 -68 -3 -4 -7 -4 -9 -2 -1 2 -26 32 -55 66
-60 71 -62 91 -9 124 41 25 88 24 115 -1z"/>
<path d="M2980 6345 c-7 -8 -8 -15 -2 -15 5 0 15 7 22 15 7 8 8 15 2 15 -5 0
-15 -7 -22 -15z"/>
<path d="M4282 6246 c-43 -73 -126 -92 -212 -48 -26 13 -37 16 -25 6 81 -66
188 -54 242 28 14 21 24 41 21 44 -3 3 -15 -11 -26 -30z"/>
<path d="M4797 6198 c-26 -11 -47 -24 -47 -29 0 -5 21 1 48 13 57 27 56 27 51
32 -2 3 -26 -5 -52 -16z"/>
<path d="M2905 6170 c11 -5 29 -8 40 -8 16 0 15 2 -5 8 -34 11 -60 11 -35 0z"/>
<path d="M2850 5982 c-9 -9 -36 -34 -60 -54 -25 -20 -40 -37 -35 -38 6 0 39
25 73 55 35 30 57 55 50 54 -7 0 -20 -8 -28 -17z"/>
<path d="M1370 5650 l0 -60 2215 0 2215 0 0 60 0 60 -2215 0 -2215 0 0 -60z"/>
<path d="M3775 4464 c-16 -2 -73 -9 -125 -15 -254 -29 -386 -84 -436 -181
l-15 -29 -41 36 c-84 77 -221 109 -453 109 -226 0 -477 -54 -573 -124 -73 -52
-135 -177 -112 -221 12 -21 15 -21 171 -17 88 3 163 8 167 12 13 14 -31 36
-70 36 -21 0 -38 4 -38 8 0 11 298 67 307 58 4 -3 -11 -24 -32 -46 -21 -22
-82 -97 -134 -167 l-96 -128 -53 -6 c-29 -4 -65 -12 -80 -18 -30 -13 -87 -91
-98 -134 -5 -24 -2 -29 30 -42 20 -8 36 -18 36 -21 0 -3 -20 -31 -44 -62 -57
-75 -133 -200 -141 -235 -9 -33 8 -57 40 -57 31 0 87 40 104 75 40 86 56 115
94 173 23 34 46 62 50 62 18 0 295 -135 422 -205 282 -156 314 -167 326 -110
11 49 10 140 -1 171 -12 34 -65 68 -205 134 -160 75 -273 119 -365 141 -49 12
-90 26 -90 31 0 4 26 8 58 8 76 1 142 8 287 30 256 41 389 92 469 181 26 28
49 62 52 75 6 23 9 23 128 26 72 2 121 7 121 13 0 10 -51 29 -109 40 -38 8
-25 18 54 44 166 53 395 91 554 91 107 0 115 -3 96 -38 -5 -9 -18 -35 -28 -58
-10 -23 -44 -72 -74 -110 -95 -117 -246 -353 -314 -490 -52 -104 -67 -143 -71
-191 -5 -53 -3 -63 16 -82 56 -56 128 -1 215 166 22 42 25 55 15 70 -13 22 11
74 144 303 56 97 92 148 108 155 13 5 83 40 154 76 127 66 165 99 111 99 -59
0 -25 21 132 83 279 109 388 131 423 88 15 -18 16 -28 8 -49 -18 -48 -113
-166 -280 -352 l-77 -86 -99 -24 c-54 -13 -117 -23 -141 -22 -37 3 -47 -2 -72
-28 -32 -34 -56 -99 -47 -124 10 -26 53 -46 101 -49 25 -1 46 -3 46 -4 0 -2
-21 -31 -46 -65 -64 -87 -76 -114 -69 -148 7 -32 23 -49 54 -55 24 -4 43 17
152 175 44 63 88 118 98 121 30 12 271 43 277 36 3 -3 -10 -34 -29 -69 -40
-72 -70 -165 -65 -204 2 -15 12 -33 23 -40 25 -16 78 0 131 41 32 25 35 31 28
59 -13 54 -8 81 27 156 l33 73 83 -6 82 -6 48 67 c80 112 106 152 101 157 -3
3 -43 10 -89 17 -46 6 -86 13 -88 15 -3 2 7 16 21 31 15 15 76 98 137 185 110
158 138 217 126 264 -16 64 -73 3 -305 -329 -123 -175 -97 -156 -245 -173 -27
-3 -60 -9 -72 -12 -13 -3 -23 -2 -23 2 0 5 42 51 93 104 187 193 245 301 226
422 -6 38 -16 60 -33 75 -84 73 -440 8 -772 -142 -5 -2 -21 25 -33 61 -25 69
-43 88 -102 105 -36 11 -247 21 -294 14z m-756 -330 c62 -22 77 -39 67 -78
-17 -68 -168 -131 -494 -205 -172 -40 -174 -40 -130 7 65 68 159 204 170 248
7 24 19 45 27 48 9 3 81 4 161 2 112 -2 157 -7 199 -22z"/>
<path d="M1360 2060 l0 -60 2235 0 2235 0 0 60 0 60 -2235 0 -2235 0 0 -60z"/>
<path d="M3150 1742 c0 -11 -3 -34 -6 -52 l-7 -32 26 16 c23 15 28 16 61 2 20
-8 36 -19 36 -23 0 -5 -38 -69 -85 -143 -69 -111 -89 -136 -112 -140 -27 -5
-26 -7 35 -49 79 -53 75 -65 -4 -16 -33 20 -47 26 -32 13 15 -13 46 -34 69
-47 l42 -23 -7 36 c-6 32 0 47 70 158 42 68 81 127 85 132 10 11 59 -31 59
-50 0 -9 7 -11 18 -7 15 6 15 4 -2 -16 -19 -21 -19 -22 -1 -15 15 6 17 4 12
-10 -4 -10 -7 -24 -7 -32 0 -8 -6 -14 -14 -14 -8 0 -24 -8 -37 -19 l-23 -18
32 5 31 4 -4 -53 c-7 -86 -15 -108 -42 -122 -23 -13 -11 -16 138 -40 90 -15
167 -27 171 -27 4 0 -1 15 -12 33 -11 17 -20 42 -20 54 0 20 -2 20 -29 -8 -25
-25 -37 -29 -82 -29 l-52 0 7 53 c11 85 16 97 40 97 12 0 31 -7 43 -15 25 -17
24 -19 38 70 l7 40 -24 -22 c-13 -13 -37 -23 -52 -23 -28 0 -28 0 -21 53 9 63
10 66 33 62 9 -2 25 -4 34 -4 9 -1 30 -12 46 -26 l29 -24 31 38 c37 46 48 40
-128 66 -121 18 -159 34 -310 135 -81 54 -80 53 -80 32z m230 -173 c0 -6 -12
-1 -27 11 -33 25 -29 29 -118 -115 -79 -127 -101 -159 -92 -132 4 9 45 78 93
152 l86 135 29 -21 c16 -11 29 -25 29 -30z m212 -34 c9 -4 19 -13 22 -21 5
-12 2 -12 -17 0 -12 8 -40 18 -63 22 l-41 6 -7 -61 c-4 -34 -12 -61 -17 -61
-6 0 -8 8 -5 18 2 9 8 37 11 62 4 25 9 48 11 51 4 7 76 -4 106 -16z m-52 -164
c0 -4 -15 -5 -34 -3 -37 4 -39 1 -52 -95 -3 -29 -11 -53 -16 -53 -6 0 -8 10
-5 23 3 12 8 45 12 72 4 28 8 55 10 60 3 12 85 7 85 -4z"/>
<path d="M4150 1702 c-47 -32 -52 -37 -32 -40 14 -2 37 -25 64 -64 39 -59 40
-62 22 -75 -25 -19 -95 -55 -98 -51 -40 53 -66 103 -66 127 l0 31 -39 -25
c-34 -21 -50 -24 -114 -23 -85 2 -108 -9 -154 -69 -26 -33 -28 -44 -28 -122 0
-73 4 -93 25 -131 14 -24 41 -55 60 -68 30 -20 44 -23 99 -20 57 4 67 8 92 36
33 37 44 71 35 107 -9 34 -26 22 -26 -16 0 -37 -23 -84 -45 -93 -30 -11 -80
-6 -103 10 -35 24 -61 87 -70 167 -9 89 -1 129 34 156 47 37 98 20 131 -42
l17 -32 13 40 13 40 -4 -45 c-5 -44 -5 -44 8 -16 l13 29 27 -40 c22 -34 26
-45 17 -62 -6 -11 -11 -30 -10 -43 0 -23 0 -23 9 -2 5 12 14 25 20 29 9 6 9 2
1 -13 -16 -29 -14 -39 3 -16 8 10 16 17 19 14 36 -44 68 -106 64 -126 -2 -13
-1 -24 2 -24 3 0 33 18 65 39 55 37 58 40 35 46 -15 4 -37 27 -56 58 l-32 52
21 15 c50 35 60 48 16 23 -51 -30 -55 -38 -35 -62 29 -36 66 -100 54 -95 -12
4 -91 124 -85 128 25 18 100 66 103 66 2 0 22 -26 45 -57 33 -46 39 -63 34
-86 l-6 -28 44 27 c23 14 51 33 61 42 16 14 16 16 -3 26 -22 12 -168 234 -180
275 -7 22 -8 23 -9 5 -1 -21 20 -58 126 -217 28 -43 46 -76 40 -74 -7 2 -51
64 -98 138 -70 108 -86 139 -82 162 3 15 4 27 2 26 -2 0 -29 -17 -59 -37z"/>
<path d="M3166 1654 c-23 -23 -20 -30 4 -9 17 15 24 16 46 6 15 -6 29 -9 32
-7 5 5 -41 26 -58 26 -5 0 -16 -7 -24 -16z"/>
<path d="M4050 1598 c0 -18 60 -121 68 -114 2 3 -5 18 -17 35 -12 16 -28 45
-36 63 -8 18 -14 25 -15 16z"/>
<path d="M3818 1530 c-39 -23 -46 -123 -16 -220 13 -42 54 -100 71 -100 7 0 4
5 -6 11 -27 16 -55 81 -68 156 -9 58 -9 74 4 106 9 20 26 41 39 47 13 5 16 9
8 9 -8 0 -23 -4 -32 -9z"/>
<path d="M3870 1536 c0 -2 9 -6 20 -9 11 -3 18 -1 14 4 -5 9 -34 13 -34 5z"/>
<path d="M3683 1507 c-35 -39 -37 -53 -2 -20 18 18 31 35 28 38 -3 3 -15 -5
-26 -18z"/>
<path d="M3601 1424 c0 -11 3 -14 6 -6 3 7 2 16 -1 19 -3 4 -6 -2 -5 -13z"/>
<path d="M4440 1403 c0 -5 -25 -23 -55 -42 -30 -19 -53 -36 -51 -39 4 -4 136
77 136 84 0 2 -7 4 -15 4 -8 0 -15 -3 -15 -7z"/>
<path d="M3592 1365 c0 -16 2 -22 5 -12 2 9 2 23 0 30 -3 6 -5 -1 -5 -18z"/>
<path d="M4032 1282 c-2 -52 -49 -109 -102 -123 l-35 -9 39 5 c65 7 112 69
103 136 -3 31 -4 30 -5 -9z"/>
<path d="M4231 1265 c-61 -38 -91 -65 -46 -42 43 23 122 77 110 76 -5 0 -34
-16 -64 -34z"/>
<path d="M3640 1241 c0 -7 10 -31 22 -52 12 -21 19 -41 16 -45 -3 -3 -43 0
-87 7 -45 6 -84 9 -87 7 -2 -3 35 -10 82 -17 57 -8 90 -9 97 -2 6 6 0 28 -17
62 -14 29 -26 47 -26 40z"/>
<path d="M3395 1170 c17 -4 46 -8 65 -8 l35 0 -40 9 c-22 4 -51 8 -65 7 -23 0
-22 -1 5 -8z"/>
<path d="M3848 1153 c7 -3 16 -2 19 1 4 3 -2 6 -13 5 -11 0 -14 -3 -6 -6z"/>
</g>
</svg>
